<mxfile host="app.diagrams.net" agent="Mozilla/5.0 (Windows NT 10.0; Win64; x64) AppleWebKit/537.36 (KHTML, like Gecko) Chrome/131.0.0.0 Safari/537.36" version="26.0.4">
  <diagram name="Page-1" id="HHapLnrhqVXgyaW970ha">
    <mxGraphModel dx="573" dy="456" grid="1" gridSize="10" guides="1" tooltips="1" connect="1" arrows="1" fold="1" page="1" pageScale="1" pageWidth="827" pageHeight="1169" math="0" shadow="0">
      <root>
        <mxCell id="0" />
        <mxCell id="1" parent="0" />
        <mxCell id="KP41fs4jYL8HxBQTLFU0-1" value="" style="sketch=0;outlineConnect=0;fontColor=#232F3E;gradientColor=none;fillColor=#232F3D;strokeColor=none;dashed=0;verticalLabelPosition=bottom;verticalAlign=top;align=center;html=1;fontSize=12;fontStyle=0;aspect=fixed;pointerEvents=1;shape=mxgraph.aws4.client;" vertex="1" parent="1">
          <mxGeometry x="110" y="180" width="78" height="76" as="geometry" />
        </mxCell>
        <mxCell id="KP41fs4jYL8HxBQTLFU0-7" value="Fetch Weather&lt;div&gt;&lt;span style=&quot;background-color: transparent; color: light-dark(rgb(0, 0, 0), rgb(255, 255, 255));&quot;&gt;&amp;nbsp;Data&lt;/span&gt;&lt;/div&gt;" style="text;strokeColor=none;align=center;fillColor=none;html=1;verticalAlign=middle;whiteSpace=wrap;rounded=0;" vertex="1" parent="1">
          <mxGeometry x="340" y="180" width="110" height="60" as="geometry" />
        </mxCell>
        <mxCell id="KP41fs4jYL8HxBQTLFU0-12" value="" style="edgeStyle=segmentEdgeStyle;endArrow=classic;html=1;curved=0;rounded=0;endSize=8;startSize=8;" edge="1" parent="1" target="KP41fs4jYL8HxBQTLFU0-7">
          <mxGeometry width="50" height="50" relative="1" as="geometry">
            <mxPoint x="188" y="210" as="sourcePoint" />
            <mxPoint x="300" y="190" as="targetPoint" />
          </mxGeometry>
        </mxCell>
        <mxCell id="KP41fs4jYL8HxBQTLFU0-13" value="" style="edgeStyle=segmentEdgeStyle;endArrow=classic;html=1;curved=0;rounded=0;endSize=8;startSize=8;" edge="1" parent="1">
          <mxGeometry width="50" height="50" relative="1" as="geometry">
            <mxPoint x="402" y="245" as="sourcePoint" />
            <mxPoint x="400" y="310" as="targetPoint" />
            <Array as="points">
              <mxPoint x="400" y="245" />
            </Array>
          </mxGeometry>
        </mxCell>
        <mxCell id="KP41fs4jYL8HxBQTLFU0-17" value="Text" style="edgeLabel;html=1;align=center;verticalAlign=middle;resizable=0;points=[];" vertex="1" connectable="0" parent="KP41fs4jYL8HxBQTLFU0-13">
          <mxGeometry x="-0.9403" y="-3" relative="1" as="geometry">
            <mxPoint x="-7" y="185" as="offset" />
          </mxGeometry>
        </mxCell>
        <mxCell id="KP41fs4jYL8HxBQTLFU0-14" value="" style="shape=ext;double=1;rounded=0;whiteSpace=wrap;html=1;" vertex="1" parent="1">
          <mxGeometry x="346.75" y="350" width="120" height="130" as="geometry" />
        </mxCell>
        <mxCell id="KP41fs4jYL8HxBQTLFU0-15" value="" style="outlineConnect=0;dashed=0;verticalLabelPosition=bottom;verticalAlign=top;align=center;html=1;shape=mxgraph.aws3.android;fillColor=#FFD44F;gradientColor=none;" vertex="1" parent="1">
          <mxGeometry x="370" y="370" width="73.5" height="84" as="geometry" />
        </mxCell>
        <mxCell id="KP41fs4jYL8HxBQTLFU0-18" value="Python Script" style="text;strokeColor=none;align=center;fillColor=none;html=1;verticalAlign=middle;whiteSpace=wrap;rounded=0;" vertex="1" parent="1">
          <mxGeometry x="376.75" y="450" width="60" height="30" as="geometry" />
        </mxCell>
        <mxCell id="KP41fs4jYL8HxBQTLFU0-19" value="Local Encvironment" style="text;strokeColor=none;align=center;fillColor=none;html=1;verticalAlign=middle;whiteSpace=wrap;rounded=0;" vertex="1" parent="1">
          <mxGeometry x="370" y="310" width="60" height="30" as="geometry" />
        </mxCell>
      </root>
    </mxGraphModel>
  </diagram>
</mxfile>
